<mxfile host="Electron" agent="Mozilla/5.0 (Windows NT 10.0; Win64; x64) AppleWebKit/537.36 (KHTML, like Gecko) draw.io/26.2.2 Chrome/134.0.6998.178 Electron/35.1.2 Safari/537.36" version="26.2.2">
  <diagram id="R2lEEEUBdFMjLlhIrx00" name="Page-1">
    <mxGraphModel dx="1667" dy="1975" grid="1" gridSize="10" guides="1" tooltips="1" connect="1" arrows="1" fold="1" page="1" pageScale="1" pageWidth="850" pageHeight="1100" math="0" shadow="0" extFonts="Permanent Marker^https://fonts.googleapis.com/css?family=Permanent+Marker">
      <root>
        <mxCell id="0" />
        <mxCell id="1" parent="0" />
        <mxCell id="HxChryZ2EemYZW8aK4Kx-1" value="&lt;font style=&quot;font-size: 24px;&quot;&gt;Docente&lt;/font&gt;" style="whiteSpace=wrap;html=1;align=center;" parent="1" vertex="1">
          <mxGeometry x="270" y="240" width="130" height="90" as="geometry" />
        </mxCell>
        <mxCell id="HxChryZ2EemYZW8aK4Kx-2" value="Nome" style="ellipse;whiteSpace=wrap;html=1;align=center;" parent="1" vertex="1">
          <mxGeometry x="160" y="240" width="70" height="30" as="geometry" />
        </mxCell>
        <mxCell id="HxChryZ2EemYZW8aK4Kx-3" value="Cognome" style="ellipse;whiteSpace=wrap;html=1;align=center;" parent="1" vertex="1">
          <mxGeometry x="160" y="270" width="70" height="30" as="geometry" />
        </mxCell>
        <mxCell id="HxChryZ2EemYZW8aK4Kx-4" value="Email" style="ellipse;whiteSpace=wrap;html=1;align=center;" parent="1" vertex="1">
          <mxGeometry x="160" y="300" width="70" height="30" as="geometry" />
        </mxCell>
        <mxCell id="HxChryZ2EemYZW8aK4Kx-5" value="Password" style="ellipse;whiteSpace=wrap;html=1;align=center;" parent="1" vertex="1">
          <mxGeometry x="160" y="330" width="70" height="30" as="geometry" />
        </mxCell>
        <mxCell id="HxChryZ2EemYZW8aK4Kx-6" value="C. Docente" style="ellipse;whiteSpace=wrap;html=1;align=center;fontStyle=4;" parent="1" vertex="1">
          <mxGeometry x="160" y="210" width="70" height="30" as="geometry" />
        </mxCell>
        <mxCell id="HxChryZ2EemYZW8aK4Kx-17" value="&lt;font style=&quot;font-size: 24px;&quot;&gt;Corso&lt;/font&gt;" style="whiteSpace=wrap;html=1;align=center;" parent="1" vertex="1">
          <mxGeometry x="270" y="-80" width="130" height="90" as="geometry" />
        </mxCell>
        <mxCell id="HxChryZ2EemYZW8aK4Kx-22" value="Nome" style="ellipse;whiteSpace=wrap;html=1;align=center;fontStyle=4;" parent="1" vertex="1">
          <mxGeometry x="180" y="-50" width="70" height="30" as="geometry" />
        </mxCell>
        <mxCell id="HxChryZ2EemYZW8aK4Kx-26" value="" style="shape=rhombus;perimeter=rhombusPerimeter;whiteSpace=wrap;html=1;align=center;" parent="1" vertex="1">
          <mxGeometry x="275" y="100" width="120" height="60" as="geometry" />
        </mxCell>
        <mxCell id="HxChryZ2EemYZW8aK4Kx-29" value="" style="endArrow=none;html=1;rounded=0;" parent="1" source="HxChryZ2EemYZW8aK4Kx-1" target="HxChryZ2EemYZW8aK4Kx-6" edge="1">
          <mxGeometry width="50" height="50" relative="1" as="geometry">
            <mxPoint x="260" y="410" as="sourcePoint" />
            <mxPoint x="310" y="360" as="targetPoint" />
          </mxGeometry>
        </mxCell>
        <mxCell id="HxChryZ2EemYZW8aK4Kx-30" value="" style="endArrow=none;html=1;rounded=0;" parent="1" source="HxChryZ2EemYZW8aK4Kx-1" target="HxChryZ2EemYZW8aK4Kx-2" edge="1">
          <mxGeometry width="50" height="50" relative="1" as="geometry">
            <mxPoint x="280" y="267" as="sourcePoint" />
            <mxPoint x="230" y="246" as="targetPoint" />
          </mxGeometry>
        </mxCell>
        <mxCell id="HxChryZ2EemYZW8aK4Kx-31" value="" style="endArrow=none;html=1;rounded=0;" parent="1" source="HxChryZ2EemYZW8aK4Kx-1" target="HxChryZ2EemYZW8aK4Kx-3" edge="1">
          <mxGeometry width="50" height="50" relative="1" as="geometry">
            <mxPoint x="290" y="277" as="sourcePoint" />
            <mxPoint x="240" y="256" as="targetPoint" />
          </mxGeometry>
        </mxCell>
        <mxCell id="HxChryZ2EemYZW8aK4Kx-32" value="" style="endArrow=none;html=1;rounded=0;" parent="1" source="HxChryZ2EemYZW8aK4Kx-1" target="HxChryZ2EemYZW8aK4Kx-4" edge="1">
          <mxGeometry width="50" height="50" relative="1" as="geometry">
            <mxPoint x="300" y="287" as="sourcePoint" />
            <mxPoint x="250" y="266" as="targetPoint" />
          </mxGeometry>
        </mxCell>
        <mxCell id="HxChryZ2EemYZW8aK4Kx-33" value="" style="endArrow=none;html=1;rounded=0;" parent="1" source="HxChryZ2EemYZW8aK4Kx-1" target="HxChryZ2EemYZW8aK4Kx-5" edge="1">
          <mxGeometry width="50" height="50" relative="1" as="geometry">
            <mxPoint x="310" y="297" as="sourcePoint" />
            <mxPoint x="260" y="276" as="targetPoint" />
          </mxGeometry>
        </mxCell>
        <mxCell id="HxChryZ2EemYZW8aK4Kx-34" value="" style="endArrow=none;html=1;rounded=0;" parent="1" source="HxChryZ2EemYZW8aK4Kx-17" target="HxChryZ2EemYZW8aK4Kx-22" edge="1">
          <mxGeometry width="50" height="50" relative="1" as="geometry">
            <mxPoint x="260" y="-65" as="sourcePoint" />
            <mxPoint x="210" y="-86" as="targetPoint" />
          </mxGeometry>
        </mxCell>
        <mxCell id="HxChryZ2EemYZW8aK4Kx-36" value="" style="endArrow=none;html=1;rounded=0;" parent="1" source="HxChryZ2EemYZW8aK4Kx-26" target="HxChryZ2EemYZW8aK4Kx-1" edge="1">
          <mxGeometry relative="1" as="geometry">
            <mxPoint x="160" y="180" as="sourcePoint" />
            <mxPoint x="320" y="180" as="targetPoint" />
          </mxGeometry>
        </mxCell>
        <mxCell id="HxChryZ2EemYZW8aK4Kx-37" value="0:N" style="resizable=0;html=1;whiteSpace=wrap;align=right;verticalAlign=bottom;" parent="HxChryZ2EemYZW8aK4Kx-36" connectable="0" vertex="1">
          <mxGeometry x="1" relative="1" as="geometry">
            <mxPoint as="offset" />
          </mxGeometry>
        </mxCell>
        <mxCell id="HxChryZ2EemYZW8aK4Kx-38" value="" style="endArrow=none;html=1;rounded=0;" parent="1" source="HxChryZ2EemYZW8aK4Kx-26" target="HxChryZ2EemYZW8aK4Kx-17" edge="1">
          <mxGeometry relative="1" as="geometry">
            <mxPoint x="280.0000000000001" y="85.20000000000005" as="sourcePoint" />
            <mxPoint x="315.72903225806465" as="targetPoint" />
          </mxGeometry>
        </mxCell>
        <mxCell id="HxChryZ2EemYZW8aK4Kx-39" value="1:1" style="resizable=0;html=1;whiteSpace=wrap;align=right;verticalAlign=bottom;" parent="HxChryZ2EemYZW8aK4Kx-38" connectable="0" vertex="1">
          <mxGeometry x="1" relative="1" as="geometry">
            <mxPoint x="19" y="20" as="offset" />
          </mxGeometry>
        </mxCell>
        <mxCell id="HxChryZ2EemYZW8aK4Kx-41" value="Data" style="ellipse;whiteSpace=wrap;html=1;align=center;" parent="1" vertex="1">
          <mxGeometry x="640" y="-80" width="70" height="30" as="geometry" />
        </mxCell>
        <mxCell id="HxChryZ2EemYZW8aK4Kx-44" value="" style="endArrow=none;html=1;rounded=0;" parent="1" source="HxChryZ2EemYZW8aK4Kx-50" target="HxChryZ2EemYZW8aK4Kx-41" edge="1">
          <mxGeometry width="50" height="50" relative="1" as="geometry">
            <mxPoint x="771" y="-32" as="sourcePoint" />
            <mxPoint x="730" y="-36" as="targetPoint" />
          </mxGeometry>
        </mxCell>
        <mxCell id="HxChryZ2EemYZW8aK4Kx-45" value="" style="shape=rhombus;perimeter=rhombusPerimeter;whiteSpace=wrap;html=1;align=center;" parent="1" vertex="1">
          <mxGeometry x="520" y="-65" width="120" height="60" as="geometry" />
        </mxCell>
        <mxCell id="HxChryZ2EemYZW8aK4Kx-46" value="" style="endArrow=none;html=1;rounded=0;" parent="1" source="HxChryZ2EemYZW8aK4Kx-45" target="HxChryZ2EemYZW8aK4Kx-17" edge="1">
          <mxGeometry relative="1" as="geometry">
            <mxPoint x="241" y="118" as="sourcePoint" />
            <mxPoint x="312" y="20" as="targetPoint" />
          </mxGeometry>
        </mxCell>
        <mxCell id="HxChryZ2EemYZW8aK4Kx-47" value="0:N" style="resizable=0;html=1;whiteSpace=wrap;align=right;verticalAlign=bottom;" parent="HxChryZ2EemYZW8aK4Kx-46" connectable="0" vertex="1">
          <mxGeometry x="1" relative="1" as="geometry">
            <mxPoint x="23" y="20" as="offset" />
          </mxGeometry>
        </mxCell>
        <mxCell id="HxChryZ2EemYZW8aK4Kx-48" value="" style="endArrow=none;html=1;rounded=0;" parent="1" source="HxChryZ2EemYZW8aK4Kx-45" target="HxChryZ2EemYZW8aK4Kx-50" edge="1">
          <mxGeometry relative="1" as="geometry">
            <mxPoint x="251" y="128" as="sourcePoint" />
            <mxPoint x="322" y="30" as="targetPoint" />
          </mxGeometry>
        </mxCell>
        <mxCell id="HxChryZ2EemYZW8aK4Kx-49" value="1:1" style="resizable=0;html=1;whiteSpace=wrap;align=right;verticalAlign=bottom;" parent="HxChryZ2EemYZW8aK4Kx-48" connectable="0" vertex="1">
          <mxGeometry x="1" relative="1" as="geometry">
            <mxPoint x="-1" y="17" as="offset" />
          </mxGeometry>
        </mxCell>
        <mxCell id="HxChryZ2EemYZW8aK4Kx-50" value="&lt;font style=&quot;font-size: 24px;&quot;&gt;Appello&lt;/font&gt;" style="shape=ext;margin=3;double=1;whiteSpace=wrap;html=1;align=center;" parent="1" vertex="1">
          <mxGeometry x="762" y="-80" width="129" height="90" as="geometry" />
        </mxCell>
        <mxCell id="HxChryZ2EemYZW8aK4Kx-51" value="" style="endArrow=none;html=1;rounded=0;" parent="1" source="HxChryZ2EemYZW8aK4Kx-52" edge="1">
          <mxGeometry width="50" height="50" relative="1" as="geometry">
            <mxPoint x="730" y="25" as="sourcePoint" />
            <mxPoint x="730" y="-95" as="targetPoint" />
          </mxGeometry>
        </mxCell>
        <mxCell id="HxChryZ2EemYZW8aK4Kx-53" value="" style="endArrow=none;html=1;rounded=0;" parent="1" target="HxChryZ2EemYZW8aK4Kx-52" edge="1">
          <mxGeometry width="50" height="50" relative="1" as="geometry">
            <mxPoint x="720" y="25" as="sourcePoint" />
            <mxPoint x="720" y="-95" as="targetPoint" />
          </mxGeometry>
        </mxCell>
        <mxCell id="HxChryZ2EemYZW8aK4Kx-52" value="" style="ellipse;whiteSpace=wrap;html=1;aspect=fixed;fillColor=#000000;" parent="1" vertex="1">
          <mxGeometry x="720" y="10" width="20" height="20" as="geometry" />
        </mxCell>
        <mxCell id="HxChryZ2EemYZW8aK4Kx-54" value="&lt;font style=&quot;font-size: 18px;&quot;&gt;Iscrizione&lt;/font&gt;" style="shape=rhombus;perimeter=rhombusPerimeter;whiteSpace=wrap;html=1;align=center;" parent="1" vertex="1">
          <mxGeometry x="766.5" y="100" width="120" height="60" as="geometry" />
        </mxCell>
        <mxCell id="HxChryZ2EemYZW8aK4Kx-55" value="" style="endArrow=none;html=1;rounded=0;" parent="1" source="HxChryZ2EemYZW8aK4Kx-54" target="HxChryZ2EemYZW8aK4Kx-50" edge="1">
          <mxGeometry relative="1" as="geometry">
            <mxPoint x="910" y="130" as="sourcePoint" />
            <mxPoint x="910" y="40" as="targetPoint" />
          </mxGeometry>
        </mxCell>
        <mxCell id="HxChryZ2EemYZW8aK4Kx-56" value="0:N" style="resizable=0;html=1;whiteSpace=wrap;align=right;verticalAlign=bottom;" parent="HxChryZ2EemYZW8aK4Kx-55" connectable="0" vertex="1">
          <mxGeometry x="1" relative="1" as="geometry">
            <mxPoint x="22" y="20" as="offset" />
          </mxGeometry>
        </mxCell>
        <mxCell id="HxChryZ2EemYZW8aK4Kx-57" value="Voto" style="ellipse;whiteSpace=wrap;html=1;align=center;" parent="1" vertex="1">
          <mxGeometry x="687" y="100" width="70" height="30" as="geometry" />
        </mxCell>
        <mxCell id="HxChryZ2EemYZW8aK4Kx-58" value="Stato di pubblicazione" style="ellipse;whiteSpace=wrap;html=1;align=center;" parent="1" vertex="1">
          <mxGeometry x="687" y="130" width="70" height="30" as="geometry" />
        </mxCell>
        <mxCell id="HxChryZ2EemYZW8aK4Kx-59" value="" style="endArrow=none;html=1;rounded=0;" parent="1" source="HxChryZ2EemYZW8aK4Kx-57" target="HxChryZ2EemYZW8aK4Kx-54" edge="1">
          <mxGeometry width="50" height="50" relative="1" as="geometry">
            <mxPoint x="772" y="-38" as="sourcePoint" />
            <mxPoint x="717" y="-49" as="targetPoint" />
          </mxGeometry>
        </mxCell>
        <mxCell id="HxChryZ2EemYZW8aK4Kx-60" value="" style="endArrow=none;html=1;rounded=0;" parent="1" source="HxChryZ2EemYZW8aK4Kx-58" target="HxChryZ2EemYZW8aK4Kx-54" edge="1">
          <mxGeometry width="50" height="50" relative="1" as="geometry">
            <mxPoint x="931" y="129" as="sourcePoint" />
            <mxPoint x="885" y="134" as="targetPoint" />
          </mxGeometry>
        </mxCell>
        <mxCell id="HxChryZ2EemYZW8aK4Kx-61" value="&lt;font style=&quot;font-size: 24px;&quot;&gt;Studente&lt;/font&gt;" style="whiteSpace=wrap;html=1;align=center;" parent="1" vertex="1">
          <mxGeometry x="761" y="240" width="130" height="90" as="geometry" />
        </mxCell>
        <mxCell id="HxChryZ2EemYZW8aK4Kx-62" value="Nome" style="ellipse;whiteSpace=wrap;html=1;align=center;" parent="1" vertex="1">
          <mxGeometry x="650" y="225" width="70" height="30" as="geometry" />
        </mxCell>
        <mxCell id="HxChryZ2EemYZW8aK4Kx-63" value="Cognome" style="ellipse;whiteSpace=wrap;html=1;align=center;" parent="1" vertex="1">
          <mxGeometry x="650" y="255" width="70" height="30" as="geometry" />
        </mxCell>
        <mxCell id="HxChryZ2EemYZW8aK4Kx-64" value="Email" style="ellipse;whiteSpace=wrap;html=1;align=center;" parent="1" vertex="1">
          <mxGeometry x="650" y="285" width="70" height="30" as="geometry" />
        </mxCell>
        <mxCell id="HxChryZ2EemYZW8aK4Kx-65" value="Password" style="ellipse;whiteSpace=wrap;html=1;align=center;" parent="1" vertex="1">
          <mxGeometry x="650" y="315" width="70" height="30" as="geometry" />
        </mxCell>
        <mxCell id="HxChryZ2EemYZW8aK4Kx-66" value="Matricola" style="ellipse;whiteSpace=wrap;html=1;align=center;fontStyle=4;" parent="1" vertex="1">
          <mxGeometry x="650" y="195" width="70" height="30" as="geometry" />
        </mxCell>
        <mxCell id="HxChryZ2EemYZW8aK4Kx-67" value="" style="endArrow=none;html=1;rounded=0;" parent="1" source="HxChryZ2EemYZW8aK4Kx-61" target="HxChryZ2EemYZW8aK4Kx-66" edge="1">
          <mxGeometry width="50" height="50" relative="1" as="geometry">
            <mxPoint x="751" y="410" as="sourcePoint" />
            <mxPoint x="801" y="360" as="targetPoint" />
          </mxGeometry>
        </mxCell>
        <mxCell id="HxChryZ2EemYZW8aK4Kx-68" value="" style="endArrow=none;html=1;rounded=0;" parent="1" source="HxChryZ2EemYZW8aK4Kx-61" target="HxChryZ2EemYZW8aK4Kx-62" edge="1">
          <mxGeometry width="50" height="50" relative="1" as="geometry">
            <mxPoint x="771" y="267" as="sourcePoint" />
            <mxPoint x="721" y="246" as="targetPoint" />
          </mxGeometry>
        </mxCell>
        <mxCell id="HxChryZ2EemYZW8aK4Kx-69" value="" style="endArrow=none;html=1;rounded=0;" parent="1" source="HxChryZ2EemYZW8aK4Kx-61" target="HxChryZ2EemYZW8aK4Kx-63" edge="1">
          <mxGeometry width="50" height="50" relative="1" as="geometry">
            <mxPoint x="781" y="277" as="sourcePoint" />
            <mxPoint x="731" y="256" as="targetPoint" />
          </mxGeometry>
        </mxCell>
        <mxCell id="HxChryZ2EemYZW8aK4Kx-70" value="" style="endArrow=none;html=1;rounded=0;" parent="1" source="HxChryZ2EemYZW8aK4Kx-61" target="HxChryZ2EemYZW8aK4Kx-64" edge="1">
          <mxGeometry width="50" height="50" relative="1" as="geometry">
            <mxPoint x="791" y="287" as="sourcePoint" />
            <mxPoint x="741" y="266" as="targetPoint" />
          </mxGeometry>
        </mxCell>
        <mxCell id="HxChryZ2EemYZW8aK4Kx-71" value="" style="endArrow=none;html=1;rounded=0;" parent="1" source="HxChryZ2EemYZW8aK4Kx-61" target="HxChryZ2EemYZW8aK4Kx-65" edge="1">
          <mxGeometry width="50" height="50" relative="1" as="geometry">
            <mxPoint x="801" y="297" as="sourcePoint" />
            <mxPoint x="751" y="276" as="targetPoint" />
          </mxGeometry>
        </mxCell>
        <mxCell id="HxChryZ2EemYZW8aK4Kx-73" value="Corso di laurea" style="ellipse;whiteSpace=wrap;html=1;align=center;" parent="1" vertex="1">
          <mxGeometry x="649" y="345" width="70" height="30" as="geometry" />
        </mxCell>
        <mxCell id="HxChryZ2EemYZW8aK4Kx-74" value="" style="endArrow=none;html=1;rounded=0;" parent="1" source="HxChryZ2EemYZW8aK4Kx-61" target="HxChryZ2EemYZW8aK4Kx-73" edge="1">
          <mxGeometry width="50" height="50" relative="1" as="geometry">
            <mxPoint x="771" y="323" as="sourcePoint" />
            <mxPoint x="721" y="344" as="targetPoint" />
          </mxGeometry>
        </mxCell>
        <mxCell id="HxChryZ2EemYZW8aK4Kx-75" value="" style="endArrow=none;html=1;rounded=0;" parent="1" source="HxChryZ2EemYZW8aK4Kx-54" target="HxChryZ2EemYZW8aK4Kx-61" edge="1">
          <mxGeometry relative="1" as="geometry">
            <mxPoint x="837" y="110" as="sourcePoint" />
            <mxPoint x="837" y="20" as="targetPoint" />
          </mxGeometry>
        </mxCell>
        <mxCell id="HxChryZ2EemYZW8aK4Kx-76" value="0:N" style="resizable=0;html=1;whiteSpace=wrap;align=right;verticalAlign=bottom;" parent="HxChryZ2EemYZW8aK4Kx-75" connectable="0" vertex="1">
          <mxGeometry x="1" relative="1" as="geometry">
            <mxPoint x="22" as="offset" />
          </mxGeometry>
        </mxCell>
        <mxCell id="HxChryZ2EemYZW8aK4Kx-77" value="&lt;font style=&quot;font-size: 24px;&quot;&gt;Verbale&lt;/font&gt;" style="whiteSpace=wrap;html=1;align=center;" parent="1" vertex="1">
          <mxGeometry x="1030" y="85.35" width="130" height="90" as="geometry" />
        </mxCell>
        <mxCell id="HxChryZ2EemYZW8aK4Kx-78" value="Data" style="ellipse;whiteSpace=wrap;html=1;align=center;" parent="1" vertex="1">
          <mxGeometry x="1190" y="115.35" width="70" height="30" as="geometry" />
        </mxCell>
        <mxCell id="HxChryZ2EemYZW8aK4Kx-82" value="Codice" style="ellipse;whiteSpace=wrap;html=1;align=center;fontStyle=4;" parent="1" vertex="1">
          <mxGeometry x="1190" y="84.82999999999998" width="70" height="30" as="geometry" />
        </mxCell>
        <mxCell id="HxChryZ2EemYZW8aK4Kx-83" value="" style="endArrow=none;html=1;rounded=0;" parent="1" source="HxChryZ2EemYZW8aK4Kx-77" target="HxChryZ2EemYZW8aK4Kx-82" edge="1">
          <mxGeometry width="50" height="50" relative="1" as="geometry">
            <mxPoint x="1020" y="255.35" as="sourcePoint" />
            <mxPoint x="1070" y="205.35" as="targetPoint" />
          </mxGeometry>
        </mxCell>
        <mxCell id="HxChryZ2EemYZW8aK4Kx-84" value="" style="endArrow=none;html=1;rounded=0;" parent="1" source="HxChryZ2EemYZW8aK4Kx-77" target="HxChryZ2EemYZW8aK4Kx-78" edge="1">
          <mxGeometry width="50" height="50" relative="1" as="geometry">
            <mxPoint x="1040" y="112.35" as="sourcePoint" />
            <mxPoint x="990" y="91.35" as="targetPoint" />
          </mxGeometry>
        </mxCell>
        <mxCell id="HxChryZ2EemYZW8aK4Kx-85" value="" style="endArrow=none;html=1;rounded=0;" parent="1" source="HxChryZ2EemYZW8aK4Kx-77" target="HxChryZ2EemYZW8aK4Kx-79" edge="1">
          <mxGeometry width="50" height="50" relative="1" as="geometry">
            <mxPoint x="1050" y="122.35" as="sourcePoint" />
            <mxPoint x="1000" y="101.35" as="targetPoint" />
          </mxGeometry>
        </mxCell>
        <mxCell id="6vsfssMBJb0tTW7DtL_9-2" value="" style="shape=rhombus;perimeter=rhombusPerimeter;whiteSpace=wrap;html=1;align=center;" vertex="1" parent="1">
          <mxGeometry x="1035" y="-65" width="120" height="60" as="geometry" />
        </mxCell>
        <mxCell id="6vsfssMBJb0tTW7DtL_9-3" value="" style="endArrow=none;html=1;rounded=0;" edge="1" parent="1" source="HxChryZ2EemYZW8aK4Kx-77" target="HxChryZ2EemYZW8aK4Kx-79">
          <mxGeometry width="50" height="50" relative="1" as="geometry">
            <mxPoint x="1095" y="85" as="sourcePoint" />
            <mxPoint x="1095" y="65" as="targetPoint" />
          </mxGeometry>
        </mxCell>
        <mxCell id="HxChryZ2EemYZW8aK4Kx-79" value="Ora" style="ellipse;whiteSpace=wrap;html=1;align=center;" parent="1" vertex="1">
          <mxGeometry x="1190" y="145.18" width="70" height="30" as="geometry" />
        </mxCell>
        <mxCell id="6vsfssMBJb0tTW7DtL_9-4" value="" style="endArrow=none;html=1;rounded=0;" edge="1" parent="1" source="6vsfssMBJb0tTW7DtL_9-2" target="HxChryZ2EemYZW8aK4Kx-50">
          <mxGeometry relative="1" as="geometry">
            <mxPoint x="1100" y="-20" as="sourcePoint" />
            <mxPoint x="980" y="-20" as="targetPoint" />
          </mxGeometry>
        </mxCell>
        <mxCell id="6vsfssMBJb0tTW7DtL_9-5" value="0:N" style="resizable=0;html=1;whiteSpace=wrap;align=right;verticalAlign=bottom;" connectable="0" vertex="1" parent="6vsfssMBJb0tTW7DtL_9-4">
          <mxGeometry x="1" relative="1" as="geometry">
            <mxPoint x="23" y="20" as="offset" />
          </mxGeometry>
        </mxCell>
        <mxCell id="6vsfssMBJb0tTW7DtL_9-6" value="" style="endArrow=none;html=1;rounded=0;" edge="1" parent="1" source="6vsfssMBJb0tTW7DtL_9-2" target="HxChryZ2EemYZW8aK4Kx-77">
          <mxGeometry relative="1" as="geometry">
            <mxPoint x="1090" y="65" as="sourcePoint" />
            <mxPoint x="920" y="40" as="targetPoint" />
          </mxGeometry>
        </mxCell>
        <mxCell id="6vsfssMBJb0tTW7DtL_9-7" value="1:1" style="resizable=0;html=1;whiteSpace=wrap;align=right;verticalAlign=bottom;" connectable="0" vertex="1" parent="6vsfssMBJb0tTW7DtL_9-6">
          <mxGeometry x="1" relative="1" as="geometry">
            <mxPoint x="25" as="offset" />
          </mxGeometry>
        </mxCell>
        <mxCell id="6vsfssMBJb0tTW7DtL_9-8" value="&lt;font style=&quot;font-size: 18px;&quot;&gt;Verbalizzazione&lt;/font&gt;" style="shape=rhombus;perimeter=rhombusPerimeter;whiteSpace=wrap;html=1;align=center;" vertex="1" parent="1">
          <mxGeometry x="1035" y="255" width="120" height="60" as="geometry" />
        </mxCell>
        <mxCell id="6vsfssMBJb0tTW7DtL_9-9" value="" style="endArrow=none;html=1;rounded=0;" edge="1" parent="1" source="6vsfssMBJb0tTW7DtL_9-8" target="HxChryZ2EemYZW8aK4Kx-61">
          <mxGeometry relative="1" as="geometry">
            <mxPoint x="1285" y="-25" as="sourcePoint" />
            <mxPoint x="901" y="-25" as="targetPoint" />
          </mxGeometry>
        </mxCell>
        <mxCell id="6vsfssMBJb0tTW7DtL_9-10" value="0:N" style="resizable=0;html=1;whiteSpace=wrap;align=right;verticalAlign=bottom;" connectable="0" vertex="1" parent="6vsfssMBJb0tTW7DtL_9-9">
          <mxGeometry x="1" relative="1" as="geometry">
            <mxPoint x="23" y="20" as="offset" />
          </mxGeometry>
        </mxCell>
        <mxCell id="6vsfssMBJb0tTW7DtL_9-11" value="" style="endArrow=none;html=1;rounded=0;" edge="1" parent="1" source="6vsfssMBJb0tTW7DtL_9-8" target="HxChryZ2EemYZW8aK4Kx-77">
          <mxGeometry relative="1" as="geometry">
            <mxPoint x="1045" y="-25" as="sourcePoint" />
            <mxPoint x="661" y="-25" as="targetPoint" />
          </mxGeometry>
        </mxCell>
        <mxCell id="6vsfssMBJb0tTW7DtL_9-12" value="0:N" style="resizable=0;html=1;whiteSpace=wrap;align=right;verticalAlign=bottom;" connectable="0" vertex="1" parent="6vsfssMBJb0tTW7DtL_9-11">
          <mxGeometry x="1" relative="1" as="geometry">
            <mxPoint x="23" y="20" as="offset" />
          </mxGeometry>
        </mxCell>
      </root>
    </mxGraphModel>
  </diagram>
</mxfile>
